<?xml version="1.0" encoding="UTF-8"?><svg id="Layer_1" xmlns="http://www.w3.org/2000/svg" viewBox="0 0 419.03 213.4"><defs><style>.cls-1{font-family:KozGoPr6N-Regular-90ms-RKSJ-H, 'Kozuka Gothic Pr6N';font-size:52px;}.cls-2,.cls-3{fill:#fff;}.cls-4{fill:none;stroke:#fff;stroke-miterlimit:10;stroke-width:2px;}.cls-3{font-family:Unispace-Bold, Unispace;font-size:55px;letter-spacing:-.02em;}.cls-5{opacity:.46;}</style></defs><path class="cls-2" d="M223.25,56.42l-29.49,69.98H61.65L111.06,9.15c2.15-5.09,8.01-7.48,13.1-5.33l93.75,39.51c5.09,2.14,7.48,8,5.34,13.09Z"/><text class="cls-1" transform="translate(121.44 83.43) rotate(22.45)"><tspan x="0" y="0">学</tspan></text><g class="cls-5"><path d="M4.68,41.61c-.69-2.31-.44-4.75,.71-6.86,1.14-2.11,3.04-3.65,5.35-4.33L108.23,1.38c.84-.25,1.71-.38,2.58-.38,3.94,0,7.49,2.64,8.62,6.43l35.14,117.97H41.77c-4.45,0-8.36,2.53-10.25,6.34L4.68,41.61Z"/><path d="M110.81,2c3.5,0,6.65,2.35,7.66,5.71l34.75,116.69H41.77c-4.02,0-7.64,1.9-9.92,4.92L5.63,41.33c-.61-2.05-.39-4.22,.63-6.1,1.02-1.88,2.7-3.24,4.75-3.85L108.52,2.34c.75-.22,1.52-.34,2.29-.34M110.81,0c-.95,0-1.91,.14-2.86,.42L10.45,29.46c-5.3,1.57-8.31,7.14-6.73,12.44l27.76,93.19c.83-4.93,5.13-8.69,10.29-8.69h114.14L120.39,7.14C119.09,2.8,115.12,0,110.81,0h0Z"/></g><path class="cls-2" d="M152.61,126.4H38.47c-5.16,0-9.46,3.76-10.29,8.69L.42,41.9c-1.58-5.3,1.43-10.87,6.73-12.44L104.65,.42c5.29-1.58,10.86,1.43,12.44,6.72l35.52,119.26Z"/><text class="cls-1" transform="translate(32.16 119.75) rotate(-17.94)"><tspan x="0" y="0">漢字</tspan></text><text class="cls-3" transform="translate(45.03 189.4)"><tspan x="0" y="0">Kanji Study</tspan></text><path class="cls-4" d="M152.61,126.4H38.47c-5.16,0-9.46,3.76-10.29,8.69"/><path class="cls-4" d="M28.18,135.09c-.1,.57-.15,1.15-.15,1.75v65.12c0,5.76,4.68,10.44,10.44,10.44H407.59c5.76,0,10.44-4.68,10.44-10.44v-65.12c0-5.76-4.68-10.44-10.44-10.44H152.61"/></svg>