<svg id="visual" viewBox="0 0 900 600" width="900" height="600" xmlns="http://www.w3.org/2000/svg" xmlns:xlink="http://www.w3.org/1999/xlink" version="1.1"><rect x="0" y="0" width="900" height="600" fill="#7223C7"></rect><defs><linearGradient id="grad1_0" x1="33.3%" y1="0%" x2="100%" y2="100%"><stop offset="20%" stop-color="#551b94" stop-opacity="1"></stop><stop offset="80%" stop-color="#551b94" stop-opacity="1"></stop></linearGradient></defs><defs><linearGradient id="grad1_1" x1="33.3%" y1="0%" x2="100%" y2="100%"><stop offset="20%" stop-color="#551b94" stop-opacity="1"></stop><stop offset="80%" stop-color="#7223c7" stop-opacity="1"></stop></linearGradient></defs><defs><linearGradient id="grad2_0" x1="0%" y1="0%" x2="66.7%" y2="100%"><stop offset="20%" stop-color="#551b94" stop-opacity="1"></stop><stop offset="80%" stop-color="#551b94" stop-opacity="1"></stop></linearGradient></defs><defs><linearGradient id="grad2_1" x1="0%" y1="0%" x2="66.7%" y2="100%"><stop offset="20%" stop-color="#7223c7" stop-opacity="1"></stop><stop offset="80%" stop-color="#551b94" stop-opacity="1"></stop></linearGradient></defs><g transform="translate(900, 0)"><path d="M0 459.7C-39.3 456.1 -78.6 452.4 -119 444C-159.3 435.7 -200.7 422.6 -225.5 390.6C-250.3 358.6 -258.7 307.8 -271.5 271.5C-284.4 235.3 -301.7 213.7 -331.7 191.5C-361.7 169.3 -404.4 146.7 -427.9 114.7C-451.4 82.7 -455.5 41.3 -459.7 0L0 0Z" fill="#631fad"></path><path d="M0 229.9C-19.7 228 -39.3 226.2 -59.5 222C-79.7 217.8 -100.3 211.3 -112.7 195.3C-125.2 179.3 -129.3 153.9 -135.8 135.8C-142.2 117.6 -150.8 106.8 -165.8 95.8C-180.9 84.7 -202.2 73.3 -214 57.3C-225.7 41.3 -227.8 20.7 -229.9 0L0 0Z" fill="#551b94"></path></g><g transform="translate(0, 600)"><path d="M0 -459.7C39 -452.6 78.1 -445.4 116.7 -435.6C155.4 -425.8 193.7 -413.4 227.5 -394C261.3 -374.7 290.7 -348.4 321 -321C351.4 -293.7 382.8 -265.3 398.1 -229.9C413.4 -194.5 412.6 -152.1 420.2 -112.6C427.8 -73.1 443.7 -36.6 459.7 0L0 0Z" fill="#631fad"></path><path d="M0 -229.9C19.5 -226.3 39 -222.7 58.4 -217.8C77.7 -212.9 96.8 -206.7 113.7 -197C130.7 -187.3 145.3 -174.2 160.5 -160.5C175.7 -146.8 191.4 -132.6 199.1 -114.9C206.7 -97.2 206.3 -76 210.1 -56.3C213.9 -36.6 221.9 -18.3 229.9 0L0 0Z" fill="#551b94"></path></g></svg>