<svg id="visual" viewBox="0 0 900 600" width="900" height="600" xmlns="http://www.w3.org/2000/svg" xmlns:xlink="http://www.w3.org/1999/xlink" version="1.1"><rect x="0" y="0" width="900" height="600" fill="#451578"></rect><g transform="translate(390.38244039798985 266.42492681688543)"><path d="M239.3 -305.5C334.4 -260.3 452.5 -222.8 488 -150C523.4 -77.2 476.2 31.1 439 141.7C401.7 252.3 374.6 365.2 303.1 419.5C231.6 473.8 115.8 469.4 15.5 448.1C-84.8 426.8 -169.7 388.5 -238.6 333.4C-307.6 278.3 -360.6 206.4 -376.2 129.1C-391.8 51.9 -370 -30.6 -330.4 -93.4C-290.8 -156.3 -233.6 -199.5 -175.6 -256.8C-117.6 -314.1 -58.8 -385.6 6.7 -394.7C72.1 -403.9 144.2 -350.8 239.3 -305.5" fill="#7223C7"></path></g></svg>