<svg id="visual" viewBox="0 0 900 600" width="900" height="600" xmlns="http://www.w3.org/2000/svg" xmlns:xlink="http://www.w3.org/1999/xlink" version="1.1"><rect x="0" y="0" width="900" height="600" fill="#7223C7"></rect><defs><linearGradient id="grad1_0" x1="33.3%" y1="0%" x2="100%" y2="100%"><stop offset="20%" stop-color="#7223c7" stop-opacity="1"></stop><stop offset="80%" stop-color="#7223c7" stop-opacity="1"></stop></linearGradient></defs><defs><linearGradient id="grad2_0" x1="0%" y1="0%" x2="66.7%" y2="100%"><stop offset="20%" stop-color="#7223c7" stop-opacity="1"></stop><stop offset="80%" stop-color="#7223c7" stop-opacity="1"></stop></linearGradient></defs><g transform="translate(900, 0)"><path d="M0 486.7C-53.8 486.4 -107.5 486.1 -150.4 462.9C-193.3 439.7 -225.4 393.6 -260.4 358.4C-295.4 323.2 -333.3 299 -365.7 265.7C-398.1 232.4 -424.9 190.1 -444.1 144.3C-463.4 98.5 -475.1 49.3 -486.7 0L0 0Z" fill="#551b94"></path></g><g transform="translate(0, 600)"><path d="M0 -486.7C47.3 -470.4 94.6 -454.1 143.4 -441.3C192.2 -428.5 242.4 -419.1 286.1 -393.8C329.8 -368.5 366.9 -327.1 387.5 -281.5C408.1 -236 412.3 -186.1 426.1 -138.4C439.9 -90.8 463.3 -45.4 486.7 0L0 0Z" fill="#551b94"></path></g></svg>