<svg id="visual" viewBox="0 0 900 600" width="900" height="600" xmlns="http://www.w3.org/2000/svg" xmlns:xlink="http://www.w3.org/1999/xlink" version="1.1"><rect x="0" y="0" width="900" height="600" fill="#7223C7"></rect><defs><linearGradient id="grad1_0" x1="33.3%" y1="0%" x2="100%" y2="100%"><stop offset="20%" stop-color="#7223c7" stop-opacity="1"></stop><stop offset="80%" stop-color="#7223c7" stop-opacity="1"></stop></linearGradient></defs><defs><linearGradient id="grad2_0" x1="0%" y1="0%" x2="66.7%" y2="100%"><stop offset="20%" stop-color="#7223c7" stop-opacity="1"></stop><stop offset="80%" stop-color="#7223c7" stop-opacity="1"></stop></linearGradient></defs><g transform="translate(900, 0)"><path d="M0 405.6C-37.3 407.1 -74.6 408.6 -105 391.8C-135.4 375 -158.8 340.1 -181.5 314.4C-204.2 288.7 -226.1 272.2 -256 256C-285.8 239.7 -323.6 223.6 -340.3 196.5C-357.1 169.4 -352.9 131.1 -360.3 96.5C-367.7 61.9 -386.6 31 -405.6 0L0 0Z" fill="#5d1da2"></path></g><g transform="translate(0, 600)"><path d="M0 -405.6C38.7 -408.7 77.5 -411.9 105 -391.8C132.5 -371.7 148.8 -328.5 178.5 -309.2C208.2 -289.9 251.4 -294.5 277.2 -277.2C303 -259.9 311.4 -220.6 326.5 -188.5C341.6 -156.4 363.4 -131.4 377.7 -101.2C392 -71 398.8 -35.5 405.6 0L0 0Z" fill="#5d1da2"></path></g></svg>