<svg xmlns="http://www.w3.org/2000/svg" xmlns:xlink="http://www.w3.org/1999/xlink" viewBox="0 0 305.42 97.95"><defs><linearGradient id="a" x1="661.39" y1="463.33" x2="407.28" y2="523.81" gradientTransform="matrix(1, 0, 0, -1, 0, 1026)" gradientUnits="userSpaceOnUse"><stop offset="0" stop-color="#7d2ae7"/><stop offset="0.77" stop-color="#7d2ae7"/><stop offset="1" stop-color="#7d2ae7" stop-opacity="0"/></linearGradient><radialGradient id="b" cx="0.58" cy="1026.16" r="0.15" gradientTransform="matrix(420, -432, -287.1, -279.13, 294882.91, 287247.81)" gradientUnits="userSpaceOnUse"><stop offset="0" stop-color="#6420ff"/><stop offset="1" stop-color="#6420ff" stop-opacity="0"/></radialGradient><radialGradient id="c" cx="1.28" cy="1024.92" r="0.15" gradientTransform="matrix(1168, 104, 82.89, -930.92, -86081.48, 954517.98)" gradientUnits="userSpaceOnUse"><stop offset="0.25" stop-color="#00c4cc"/><stop offset="1" stop-color="#00c4cc" stop-opacity="0"/></radialGradient><radialGradient id="d" cx="0.69" cy="1025.57" r="0.15" gradientTransform="matrix(588.5, -474, -324.11, -402.4, 332475.58, 413574.12)" xlink:href="#b"/><radialGradient id="e" cx="1.36" cy="1025" r="0.15" gradientTransform="matrix(728, -496, -339.15, -497.78, 347012.87, 511478.63)" xlink:href="#b"/><radialGradient id="f" cx="1.16" cy="1024.83" r="0.15" gradientTransform="matrix(1700, 376, 461.15, -2084.98, -474184.61, 2136789.98)" gradientUnits="userSpaceOnUse"><stop offset="0" stop-color="#00c4cc" stop-opacity="0.73"/><stop offset="0" stop-color="#00c4cc"/><stop offset="1" stop-color="#00c4cc" stop-opacity="0"/></radialGradient></defs><title>Canva logo - Brandlogos.net</title><path d="M662.59,530a1.34,1.34,0,0,0-1.24,1c-3.13,8.93-7.36,14.25-10.84,14.25-2,0-2.81-2.23-2.81-5.73,0-8.75,5.24-27.3,7.88-35.76a10,10,0,0,0,.5-2.72c0-2.46-1.34-3.67-4.67-3.67-3.59,0-7.45,1.4-11.21,8-1.3-5.8-5.22-8.34-10.71-8.34-6.34,0-12.46,4.08-17.5,10.69s-11,8.78-15.42,7.71c3.21-7.85,4.4-13.71,4.4-18.07,0-6.83-3.37-10.95-8.83-10.95-8.29,0-13.07,7.91-13.07,16.23,0,6.43,2.92,13,9.33,16.25-5.38,12.16-13.22,23.15-16.2,23.15-3.85,0-5-18.83-4.76-32.3.14-7.73.78-8.12.78-10.46,0-1.34-.87-2.26-4.37-2.26-8.15,0-10.67,6.9-11.06,14.83a39.07,39.07,0,0,1-1.4,8.9c-3.41,12.16-10.43,21.38-15,21.38-2.12,0-2.7-2.12-2.7-4.9,0-8.75,4.9-19.68,4.9-29,0-6.86-3-11.19-8.67-11.19-6.67,0-15.5,7.94-23.85,22.82,2.75-11.39,3.88-22.42-4.26-22.42a11,11,0,0,0-5.05,1.31,2.87,2.87,0,0,0-1.65,2.78c.78,12.13-9.77,43.19-19.78,43.19-1.82,0-2.7-2-2.7-5.15,0-8.77,5.22-27.27,7.85-35.75a10.05,10.05,0,0,0,.52-2.87c0-2.32-1.44-3.51-4.69-3.51-3.57,0-7.45,1.36-11.19,7.94-1.31-5.8-5.24-8.34-10.72-8.34-9,0-19,9.51-23.46,21.91-5.91,16.55-17.82,32.54-33.86,32.54-14.55,0-22.23-12.11-22.23-31.24,0-27.63,20.28-50.2,35.32-50.2,7.19,0,10.63,4.58,10.63,11.61,0,8.51-4.75,12.46-4.75,15.7,0,1,.82,2,2.46,2,6.54,0,14.23-7.68,14.23-18.16S424.21,463,409.16,463c-24.86,0-49.88,25-49.88,57.07,0,25.5,12.58,40.88,34.34,40.88,14.84,0,27.81-11.54,34.8-25,.79,11.16,5.86,17,13.59,17,6.87,0,12.43-4.09,16.68-11.29,1.63,7.53,6,11.21,11.61,11.21,6.46,0,11.87-4.09,17-11.7-.08,6,1.28,11.59,6.46,11.59,2.44,0,5.36-.57,5.88-2.7,5.45-22.54,18.92-40.94,23-40.94,1.22,0,1.56,1.18,1.56,2.57,0,6.12-4.32,18.68-4.32,26.69,0,8.66,3.68,14.39,11.29,14.39,8.43,0,17-10.32,22.71-25.41,1.79,14.1,5.65,25.47,11.7,25.47,7.42,0,20.6-15.62,28.59-32.16a17.24,17.24,0,0,0,12.35-2.9,42.62,42.62,0,0,0-3.05,15.53c0,15.35,7.33,19.65,13.64,19.65,6.86,0,12.42-4.09,16.68-11.29,1.4,6.49,5,11.19,11.59,11.19,10.32,0,19.29-10.55,19.29-19.21C664.71,531.36,663.73,530,662.59,530ZM448.32,544.45c-4.17,0-5.8-4.2-5.8-10.46,0-10.87,7.44-29,15.3-29,3.44,0,4.73,4,4.73,9C462.55,525,455.48,544.45,448.32,544.45ZM591.12,512a16.55,16.55,0,0,1-3.39-10.58c0-4.43,1.62-8.17,3.56-8.17s2.54,1.91,2.54,4.57C593.82,502.26,592.23,508.75,591.12,512Zm32.33,32.45c-4.17,0-5.8-4.83-5.8-10.46,0-10.49,7.44-29,15.36-29,3.44,0,4.66,4,4.66,9C637.67,525,630.72,544.45,623.45,544.45Z" transform="translate(-359.29 -463.03)" style="fill:url(#a)"/><path d="M662.59,530a1.34,1.34,0,0,0-1.24,1c-3.13,8.93-7.36,14.25-10.84,14.25-2,0-2.81-2.23-2.81-5.73,0-8.75,5.24-27.3,7.88-35.76a10,10,0,0,0,.5-2.72c0-2.46-1.34-3.67-4.67-3.67-3.59,0-7.45,1.4-11.21,8-1.3-5.8-5.22-8.34-10.71-8.34-6.34,0-12.46,4.08-17.5,10.69s-11,8.78-15.42,7.71c3.21-7.85,4.4-13.71,4.4-18.07,0-6.83-3.37-10.95-8.83-10.95-8.29,0-13.07,7.91-13.07,16.23,0,6.43,2.92,13,9.33,16.25-5.38,12.16-13.22,23.15-16.2,23.15-3.85,0-5-18.83-4.76-32.3.14-7.73.78-8.12.78-10.46,0-1.34-.87-2.26-4.37-2.26-8.15,0-10.67,6.9-11.06,14.83a39.07,39.07,0,0,1-1.4,8.9c-3.41,12.16-10.43,21.38-15,21.38-2.12,0-2.7-2.12-2.7-4.9,0-8.75,4.9-19.68,4.9-29,0-6.86-3-11.19-8.67-11.19-6.67,0-15.5,7.94-23.85,22.82,2.75-11.39,3.88-22.42-4.26-22.42a11,11,0,0,0-5.05,1.31,2.87,2.87,0,0,0-1.65,2.78c.78,12.13-9.77,43.19-19.78,43.19-1.82,0-2.7-2-2.7-5.15,0-8.77,5.22-27.27,7.85-35.75a10.05,10.05,0,0,0,.52-2.87c0-2.32-1.44-3.51-4.69-3.51-3.57,0-7.45,1.36-11.19,7.94-1.31-5.8-5.24-8.34-10.72-8.34-9,0-19,9.51-23.46,21.91-5.91,16.55-17.82,32.54-33.86,32.54-14.55,0-22.23-12.11-22.23-31.24,0-27.63,20.28-50.2,35.32-50.2,7.19,0,10.63,4.58,10.63,11.61,0,8.51-4.75,12.46-4.75,15.7,0,1,.82,2,2.46,2,6.54,0,14.23-7.68,14.23-18.16S424.21,463,409.16,463c-24.86,0-49.88,25-49.88,57.07,0,25.5,12.58,40.88,34.34,40.88,14.84,0,27.81-11.54,34.8-25,.79,11.16,5.86,17,13.59,17,6.87,0,12.43-4.09,16.68-11.29,1.63,7.53,6,11.21,11.61,11.21,6.46,0,11.87-4.09,17-11.7-.08,6,1.28,11.59,6.46,11.59,2.44,0,5.36-.57,5.88-2.7,5.45-22.54,18.92-40.94,23-40.94,1.22,0,1.56,1.18,1.56,2.57,0,6.12-4.32,18.68-4.32,26.69,0,8.66,3.68,14.39,11.29,14.39,8.43,0,17-10.32,22.71-25.41,1.79,14.1,5.65,25.47,11.7,25.47,7.42,0,20.6-15.62,28.59-32.16a17.24,17.24,0,0,0,12.35-2.9,42.62,42.62,0,0,0-3.05,15.53c0,15.35,7.33,19.65,13.64,19.65,6.86,0,12.42-4.09,16.68-11.29,1.4,6.49,5,11.19,11.59,11.19,10.32,0,19.29-10.55,19.29-19.21C664.71,531.36,663.73,530,662.59,530ZM448.32,544.45c-4.17,0-5.8-4.2-5.8-10.46,0-10.87,7.44-29,15.3-29,3.44,0,4.73,4,4.73,9C462.55,525,455.48,544.45,448.32,544.45ZM591.12,512a16.55,16.55,0,0,1-3.39-10.58c0-4.43,1.62-8.17,3.56-8.17s2.54,1.91,2.54,4.57C593.82,502.26,592.23,508.75,591.12,512Zm32.33,32.45c-4.17,0-5.8-4.83-5.8-10.46,0-10.49,7.44-29,15.36-29,3.44,0,4.66,4,4.66,9C637.67,525,630.72,544.45,623.45,544.45Z" transform="translate(-359.29 -463.03)" style="fill:url(#b)"/><path d="M662.59,530a1.34,1.34,0,0,0-1.24,1c-3.13,8.93-7.36,14.25-10.84,14.25-2,0-2.81-2.23-2.81-5.73,0-8.75,5.24-27.3,7.88-35.76a10,10,0,0,0,.5-2.72c0-2.46-1.34-3.67-4.67-3.67-3.59,0-7.45,1.4-11.21,8-1.3-5.8-5.22-8.34-10.71-8.34-6.34,0-12.46,4.08-17.5,10.69s-11,8.78-15.42,7.71c3.21-7.85,4.4-13.71,4.4-18.07,0-6.83-3.37-10.95-8.83-10.95-8.29,0-13.07,7.91-13.07,16.23,0,6.43,2.92,13,9.33,16.25-5.38,12.16-13.22,23.15-16.2,23.15-3.85,0-5-18.83-4.76-32.3.14-7.73.78-8.12.78-10.46,0-1.34-.87-2.26-4.37-2.26-8.15,0-10.67,6.9-11.06,14.83a39.07,39.07,0,0,1-1.4,8.9c-3.41,12.16-10.43,21.38-15,21.38-2.12,0-2.7-2.12-2.7-4.9,0-8.75,4.9-19.68,4.9-29,0-6.86-3-11.19-8.67-11.19-6.67,0-15.5,7.94-23.85,22.82,2.75-11.39,3.88-22.42-4.26-22.42a11,11,0,0,0-5.05,1.31,2.87,2.87,0,0,0-1.65,2.78c.78,12.13-9.77,43.19-19.78,43.19-1.82,0-2.7-2-2.7-5.15,0-8.77,5.22-27.27,7.85-35.75a10.05,10.05,0,0,0,.52-2.87c0-2.32-1.44-3.51-4.69-3.51-3.57,0-7.45,1.36-11.19,7.94-1.31-5.8-5.24-8.34-10.72-8.34-9,0-19,9.51-23.46,21.91-5.91,16.55-17.82,32.54-33.86,32.54-14.55,0-22.23-12.11-22.23-31.24,0-27.63,20.28-50.2,35.32-50.2,7.19,0,10.63,4.58,10.63,11.61,0,8.51-4.75,12.46-4.75,15.7,0,1,.82,2,2.46,2,6.54,0,14.23-7.68,14.23-18.16S424.21,463,409.16,463c-24.86,0-49.88,25-49.88,57.07,0,25.5,12.58,40.88,34.34,40.88,14.84,0,27.81-11.54,34.8-25,.79,11.16,5.86,17,13.59,17,6.87,0,12.43-4.09,16.68-11.29,1.63,7.53,6,11.21,11.61,11.21,6.46,0,11.87-4.09,17-11.7-.08,6,1.28,11.59,6.46,11.59,2.44,0,5.36-.57,5.88-2.7,5.45-22.54,18.92-40.94,23-40.94,1.22,0,1.56,1.18,1.56,2.57,0,6.12-4.32,18.68-4.32,26.69,0,8.66,3.68,14.39,11.29,14.39,8.43,0,17-10.32,22.71-25.41,1.79,14.1,5.65,25.47,11.7,25.47,7.42,0,20.6-15.62,28.59-32.16a17.24,17.24,0,0,0,12.35-2.9,42.62,42.62,0,0,0-3.05,15.53c0,15.35,7.33,19.65,13.64,19.65,6.86,0,12.42-4.09,16.68-11.29,1.4,6.49,5,11.19,11.59,11.19,10.32,0,19.29-10.55,19.29-19.21C664.71,531.36,663.73,530,662.59,530ZM448.32,544.45c-4.17,0-5.8-4.2-5.8-10.46,0-10.87,7.44-29,15.3-29,3.44,0,4.73,4,4.73,9C462.55,525,455.48,544.45,448.32,544.45ZM591.12,512a16.55,16.55,0,0,1-3.39-10.58c0-4.43,1.62-8.17,3.56-8.17s2.54,1.91,2.54,4.57C593.82,502.26,592.23,508.75,591.12,512Zm32.33,32.45c-4.17,0-5.8-4.83-5.8-10.46,0-10.49,7.44-29,15.36-29,3.44,0,4.66,4,4.66,9C637.67,525,630.72,544.45,623.45,544.45Z" transform="translate(-359.29 -463.03)" style="fill:url(#c)"/><path d="M662.59,530a1.34,1.34,0,0,0-1.24,1c-3.13,8.93-7.36,14.25-10.84,14.25-2,0-2.81-2.23-2.81-5.73,0-8.75,5.24-27.3,7.88-35.76a10,10,0,0,0,.5-2.72c0-2.46-1.34-3.67-4.67-3.67-3.59,0-7.45,1.4-11.21,8-1.3-5.8-5.22-8.34-10.71-8.34-6.34,0-12.46,4.08-17.5,10.69s-11,8.78-15.42,7.71c3.21-7.85,4.4-13.71,4.4-18.07,0-6.83-3.37-10.95-8.83-10.95-8.29,0-13.07,7.91-13.07,16.23,0,6.43,2.92,13,9.33,16.25-5.38,12.16-13.22,23.15-16.2,23.15-3.85,0-5-18.83-4.76-32.3.14-7.73.78-8.12.78-10.46,0-1.34-.87-2.26-4.37-2.26-8.15,0-10.67,6.9-11.06,14.83a39.07,39.07,0,0,1-1.4,8.9c-3.41,12.16-10.43,21.38-15,21.38-2.12,0-2.7-2.12-2.7-4.9,0-8.75,4.9-19.68,4.9-29,0-6.86-3-11.19-8.67-11.19-6.67,0-15.5,7.94-23.85,22.82,2.75-11.39,3.88-22.42-4.26-22.42a11,11,0,0,0-5.05,1.31,2.87,2.87,0,0,0-1.65,2.78c.78,12.13-9.77,43.19-19.78,43.19-1.82,0-2.7-2-2.7-5.15,0-8.77,5.22-27.27,7.85-35.75a10.05,10.05,0,0,0,.52-2.87c0-2.32-1.44-3.51-4.69-3.51-3.57,0-7.45,1.36-11.19,7.94-1.31-5.8-5.24-8.34-10.72-8.34-9,0-19,9.51-23.46,21.91-5.91,16.55-17.82,32.54-33.86,32.54-14.55,0-22.23-12.11-22.23-31.24,0-27.63,20.28-50.2,35.32-50.2,7.19,0,10.63,4.58,10.63,11.61,0,8.51-4.75,12.46-4.75,15.7,0,1,.82,2,2.46,2,6.54,0,14.23-7.68,14.23-18.16S424.21,463,409.16,463c-24.86,0-49.88,25-49.88,57.07,0,25.5,12.58,40.88,34.34,40.88,14.84,0,27.81-11.54,34.8-25,.79,11.16,5.86,17,13.59,17,6.87,0,12.43-4.09,16.68-11.29,1.63,7.53,6,11.21,11.61,11.21,6.46,0,11.87-4.09,17-11.7-.08,6,1.28,11.59,6.46,11.59,2.44,0,5.36-.57,5.88-2.7,5.45-22.54,18.92-40.94,23-40.94,1.22,0,1.56,1.18,1.56,2.57,0,6.12-4.32,18.68-4.32,26.69,0,8.66,3.68,14.39,11.29,14.39,8.43,0,17-10.32,22.71-25.41,1.79,14.1,5.65,25.47,11.7,25.47,7.42,0,20.6-15.62,28.59-32.16a17.24,17.24,0,0,0,12.35-2.9,42.62,42.62,0,0,0-3.05,15.53c0,15.35,7.33,19.65,13.64,19.65,6.86,0,12.42-4.09,16.68-11.29,1.4,6.49,5,11.19,11.59,11.19,10.32,0,19.29-10.55,19.29-19.21C664.71,531.36,663.73,530,662.59,530ZM448.32,544.45c-4.17,0-5.8-4.2-5.8-10.46,0-10.87,7.44-29,15.3-29,3.44,0,4.73,4,4.73,9C462.55,525,455.48,544.45,448.32,544.45ZM591.12,512a16.55,16.55,0,0,1-3.39-10.58c0-4.43,1.62-8.17,3.56-8.17s2.54,1.91,2.54,4.57C593.82,502.26,592.23,508.75,591.12,512Zm32.33,32.45c-4.17,0-5.8-4.83-5.8-10.46,0-10.49,7.44-29,15.36-29,3.44,0,4.66,4,4.66,9C637.67,525,630.72,544.45,623.45,544.45Z" transform="translate(-359.29 -463.03)" style="fill:url(#d)"/><path d="M662.59,530a1.34,1.34,0,0,0-1.24,1c-3.13,8.93-7.36,14.25-10.84,14.25-2,0-2.81-2.23-2.81-5.73,0-8.75,5.24-27.3,7.88-35.76a10,10,0,0,0,.5-2.72c0-2.46-1.34-3.67-4.67-3.67-3.59,0-7.45,1.4-11.21,8-1.3-5.8-5.22-8.34-10.71-8.34-6.34,0-12.46,4.08-17.5,10.69s-11,8.78-15.42,7.71c3.21-7.85,4.4-13.71,4.4-18.07,0-6.83-3.37-10.95-8.83-10.95-8.29,0-13.07,7.91-13.07,16.23,0,6.43,2.92,13,9.33,16.25-5.38,12.16-13.22,23.15-16.2,23.15-3.85,0-5-18.83-4.76-32.3.14-7.73.78-8.12.78-10.46,0-1.34-.87-2.26-4.37-2.26-8.15,0-10.67,6.9-11.06,14.83a39.07,39.07,0,0,1-1.4,8.9c-3.41,12.16-10.43,21.38-15,21.38-2.12,0-2.7-2.12-2.7-4.9,0-8.75,4.9-19.68,4.9-29,0-6.86-3-11.19-8.67-11.19-6.67,0-15.5,7.94-23.85,22.82,2.75-11.39,3.88-22.42-4.26-22.42a11,11,0,0,0-5.05,1.31,2.87,2.87,0,0,0-1.65,2.78c.78,12.13-9.77,43.19-19.78,43.19-1.82,0-2.7-2-2.7-5.15,0-8.77,5.22-27.27,7.85-35.75a10.05,10.05,0,0,0,.52-2.87c0-2.32-1.44-3.51-4.69-3.51-3.57,0-7.45,1.36-11.19,7.94-1.31-5.8-5.24-8.34-10.72-8.34-9,0-19,9.51-23.46,21.91-5.91,16.55-17.82,32.54-33.86,32.54-14.55,0-22.23-12.11-22.23-31.24,0-27.63,20.28-50.2,35.32-50.2,7.19,0,10.63,4.58,10.63,11.61,0,8.51-4.75,12.46-4.75,15.7,0,1,.82,2,2.46,2,6.54,0,14.23-7.68,14.23-18.16S424.21,463,409.16,463c-24.86,0-49.88,25-49.88,57.07,0,25.5,12.58,40.88,34.34,40.88,14.84,0,27.81-11.54,34.8-25,.79,11.16,5.86,17,13.59,17,6.87,0,12.43-4.09,16.68-11.29,1.63,7.53,6,11.21,11.61,11.21,6.46,0,11.87-4.09,17-11.7-.08,6,1.28,11.59,6.46,11.59,2.44,0,5.36-.57,5.88-2.7,5.45-22.54,18.92-40.94,23-40.94,1.22,0,1.56,1.18,1.56,2.57,0,6.12-4.32,18.68-4.32,26.69,0,8.66,3.68,14.39,11.29,14.39,8.43,0,17-10.32,22.71-25.41,1.79,14.1,5.65,25.47,11.7,25.47,7.42,0,20.6-15.62,28.59-32.16a17.24,17.24,0,0,0,12.35-2.9,42.62,42.62,0,0,0-3.05,15.53c0,15.35,7.33,19.65,13.64,19.65,6.86,0,12.42-4.09,16.68-11.29,1.4,6.49,5,11.19,11.59,11.19,10.32,0,19.29-10.55,19.29-19.21C664.71,531.36,663.73,530,662.59,530ZM448.32,544.45c-4.17,0-5.8-4.2-5.8-10.46,0-10.87,7.44-29,15.3-29,3.44,0,4.73,4,4.73,9C462.55,525,455.48,544.45,448.32,544.45ZM591.12,512a16.55,16.55,0,0,1-3.39-10.58c0-4.43,1.62-8.17,3.56-8.17s2.54,1.91,2.54,4.57C593.82,502.26,592.23,508.75,591.12,512Zm32.33,32.45c-4.17,0-5.8-4.83-5.8-10.46,0-10.49,7.44-29,15.36-29,3.44,0,4.66,4,4.66,9C637.67,525,630.72,544.45,623.45,544.45Z" transform="translate(-359.29 -463.03)" style="fill:url(#e)"/><path d="M662.59,530a1.34,1.34,0,0,0-1.24,1c-3.13,8.93-7.36,14.25-10.84,14.25-2,0-2.81-2.23-2.81-5.73,0-8.75,5.24-27.3,7.88-35.76a10,10,0,0,0,.5-2.72c0-2.46-1.34-3.67-4.67-3.67-3.59,0-7.45,1.4-11.21,8-1.3-5.8-5.22-8.34-10.71-8.34-6.34,0-12.46,4.08-17.5,10.69s-11,8.78-15.42,7.71c3.21-7.85,4.4-13.71,4.4-18.07,0-6.83-3.37-10.95-8.83-10.95-8.29,0-13.07,7.91-13.07,16.23,0,6.43,2.92,13,9.33,16.25-5.38,12.16-13.22,23.15-16.2,23.15-3.85,0-5-18.83-4.76-32.3.14-7.73.78-8.12.78-10.46,0-1.34-.87-2.26-4.37-2.26-8.15,0-10.67,6.9-11.06,14.83a39.07,39.07,0,0,1-1.4,8.9c-3.41,12.16-10.43,21.38-15,21.38-2.12,0-2.7-2.12-2.7-4.9,0-8.75,4.9-19.68,4.9-29,0-6.86-3-11.19-8.67-11.19-6.67,0-15.5,7.94-23.85,22.82,2.75-11.39,3.88-22.42-4.26-22.42a11,11,0,0,0-5.05,1.31,2.87,2.87,0,0,0-1.65,2.78c.78,12.13-9.77,43.19-19.78,43.19-1.82,0-2.7-2-2.7-5.15,0-8.77,5.22-27.27,7.85-35.75a10.05,10.05,0,0,0,.52-2.87c0-2.32-1.44-3.51-4.69-3.51-3.57,0-7.45,1.36-11.19,7.94-1.31-5.8-5.24-8.34-10.72-8.34-9,0-19,9.51-23.46,21.91-5.91,16.55-17.82,32.54-33.86,32.54-14.55,0-22.23-12.11-22.23-31.24,0-27.63,20.28-50.2,35.32-50.2,7.19,0,10.63,4.58,10.63,11.61,0,8.51-4.75,12.46-4.75,15.7,0,1,.82,2,2.46,2,6.54,0,14.23-7.68,14.23-18.16S424.21,463,409.16,463c-24.86,0-49.88,25-49.88,57.07,0,25.5,12.58,40.88,34.34,40.88,14.84,0,27.81-11.54,34.8-25,.79,11.16,5.86,17,13.59,17,6.87,0,12.43-4.09,16.68-11.29,1.63,7.53,6,11.21,11.61,11.21,6.46,0,11.87-4.09,17-11.7-.08,6,1.28,11.59,6.46,11.59,2.44,0,5.36-.57,5.88-2.7,5.45-22.54,18.92-40.94,23-40.94,1.22,0,1.56,1.18,1.56,2.57,0,6.12-4.32,18.68-4.32,26.69,0,8.66,3.68,14.39,11.29,14.39,8.43,0,17-10.32,22.71-25.41,1.79,14.1,5.65,25.47,11.7,25.47,7.42,0,20.6-15.62,28.59-32.16a17.24,17.24,0,0,0,12.35-2.9,42.62,42.62,0,0,0-3.05,15.53c0,15.35,7.33,19.65,13.64,19.65,6.86,0,12.42-4.09,16.68-11.29,1.4,6.49,5,11.19,11.59,11.19,10.32,0,19.29-10.55,19.29-19.21C664.71,531.36,663.73,530,662.59,530ZM448.32,544.45c-4.17,0-5.8-4.2-5.8-10.46,0-10.87,7.44-29,15.3-29,3.44,0,4.73,4,4.73,9C462.55,525,455.48,544.45,448.32,544.45ZM591.12,512a16.55,16.55,0,0,1-3.39-10.58c0-4.43,1.62-8.17,3.56-8.17s2.54,1.91,2.54,4.57C593.82,502.26,592.23,508.75,591.12,512Zm32.33,32.45c-4.17,0-5.8-4.83-5.8-10.46,0-10.49,7.44-29,15.36-29,3.44,0,4.66,4,4.66,9C637.67,525,630.72,544.45,623.45,544.45Z" transform="translate(-359.29 -463.03)" style="fill:url(#f)"/></svg>