<svg id="visual" viewBox="0 0 900 600" width="900" height="600" xmlns="http://www.w3.org/2000/svg" xmlns:xlink="http://www.w3.org/1999/xlink" version="1.1"><g stroke-width="1" stroke-linejoin="bevel"><path d="M447.6 305.7L406.4 277.7L393.4 305.3Z" fill="#5f1da7" stroke="#001122"></path><path d="M447.6 305.7L468.6 248L406.4 277.7Z" fill="#5f1da7" stroke="#001122"></path><path d="M393.4 305.3L381.2 365.3L447.6 305.7Z" fill="#651fb1" stroke="#001122"></path><path d="M468.6 248L379.2 228.7L406.4 277.7Z" fill="#651fb1" stroke="#001122"></path><path d="M406.4 277.7L315.9 268.7L393.4 305.3Z" fill="#5f1da7" stroke="#001122"></path><path d="M393.4 305.3L337.2 351L381.2 365.3Z" fill="#5f1da7" stroke="#001122"></path><path d="M381.2 365.3L502.6 345.3L447.6 305.7Z" fill="#651fb1" stroke="#001122"></path><path d="M447.6 305.7L502.6 345.3L468.6 248Z" fill="#47157e" stroke="#001122"></path><path d="M315.9 268.7L337.2 351L393.4 305.3Z" fill="#7223c7" stroke="#001122"></path><path d="M434.4 188L370.2 209L379.2 228.7Z" fill="#6c21bc" stroke="#001122"></path><path d="M379.2 228.7L315.9 268.7L406.4 277.7Z" fill="#7223c7" stroke="#001122"></path><path d="M370.2 209L315.9 268.7L379.2 228.7Z" fill="#531992" stroke="#001122"></path><path d="M468.6 248L434.4 188L379.2 228.7Z" fill="#5f1da7" stroke="#001122"></path><path d="M325.9 432L433.4 448L381.2 365.3Z" fill="#7223c7" stroke="#001122"></path><path d="M381.2 365.3L433.4 448L502.6 345.3Z" fill="#651fb1" stroke="#001122"></path><path d="M434.4 188L372.4 156.3L370.2 209Z" fill="#6c21bc" stroke="#001122"></path><path d="M370.2 209L304.9 174L315.9 268.7Z" fill="#5f1da7" stroke="#001122"></path><path d="M468.6 248L471.6 148.3L434.4 188Z" fill="#531992" stroke="#001122"></path><path d="M434.4 188L471.6 148.3L372.4 156.3Z" fill="#4d1788" stroke="#001122"></path><path d="M528.8 154.3L471.6 148.3L468.6 248Z" fill="#591b9c" stroke="#001122"></path><path d="M321.2 433.7L325.9 432L314.9 433.7Z" fill="#531992" stroke="#001122"></path><path d="M337.2 351L325.9 432L381.2 365.3Z" fill="#5f1da7" stroke="#001122"></path><path d="M314.9 433.7L325.9 432L337.2 351Z" fill="#47157e" stroke="#001122"></path><path d="M325.9 432L435.4 492.7L433.4 448Z" fill="#5f1da7" stroke="#001122"></path><path d="M249.9 374.3L314.9 433.7L337.2 351Z" fill="#4d1788" stroke="#001122"></path><path d="M318.2 550.3L435.4 492.7L325.9 432Z" fill="#591b9c" stroke="#001122"></path><path d="M433.4 448L518.6 442L502.6 345.3Z" fill="#7223c7" stroke="#001122"></path><path d="M502.6 345.3L590.8 278.7L468.6 248Z" fill="#531992" stroke="#001122"></path><path d="M588.8 361.3L590.8 278.7L502.6 345.3Z" fill="#7223c7" stroke="#001122"></path><path d="M372.4 156.3L304.9 174L370.2 209Z" fill="#3c116a" stroke="#001122"></path><path d="M315.9 268.7L236.7 322.3L337.2 351Z" fill="#5f1da7" stroke="#001122"></path><path d="M518.6 442L588.8 361.3L502.6 345.3Z" fill="#531992" stroke="#001122"></path><path d="M587.8 218L528.8 154.3L468.6 248Z" fill="#531992" stroke="#001122"></path><path d="M304.9 174L244.7 244.7L315.9 268.7Z" fill="#411374" stroke="#001122"></path><path d="M244.7 244.7L236.7 322.3L315.9 268.7Z" fill="#7223c7" stroke="#001122"></path><path d="M236.7 322.3L249.9 374.3L337.2 351Z" fill="#6c21bc" stroke="#001122"></path><path d="M590.8 278.7L587.8 218L468.6 248Z" fill="#3c116a" stroke="#001122"></path><path d="M318.2 550.3L325.9 432L321.2 433.7Z" fill="#651fb1" stroke="#001122"></path><path d="M433.4 448L435.4 492.7L518.6 442Z" fill="#360f60" stroke="#001122"></path><path d="M682.3 271.7L605.1 242L590.8 278.7Z" fill="#591b9c" stroke="#001122"></path><path d="M590.8 278.7L605.1 242L587.8 218Z" fill="#5f1da7" stroke="#001122"></path><path d="M518.6 442L597.8 388L588.8 361.3Z" fill="#6c21bc" stroke="#001122"></path><path d="M588.8 361.3L662.1 363L590.8 278.7Z" fill="#3c116a" stroke="#001122"></path><path d="M350.2 600L450.6 509.7L435.4 492.7Z" fill="#531992" stroke="#001122"></path><path d="M435.4 492.7L450.6 509.7L518.6 442Z" fill="#47157e" stroke="#001122"></path><path d="M518.6 442L590.1 509.7L597.8 388Z" fill="#360f60" stroke="#001122"></path><path d="M682.3 271.7L616.1 220.7L605.1 242Z" fill="#5f1da7" stroke="#001122"></path><path d="M605.1 242L616.1 220.7L587.8 218Z" fill="#47157e" stroke="#001122"></path><path d="M587.8 218L614.1 137.3L528.8 154.3Z" fill="#3c116a" stroke="#001122"></path><path d="M434.4 49.7L347.2 91.3L372.4 156.3Z" fill="#4d1788" stroke="#001122"></path><path d="M372.4 156.3L347.2 91.3L304.9 174Z" fill="#5f1da7" stroke="#001122"></path><path d="M304.9 174L223.7 154.3L244.7 244.7Z" fill="#4d1788" stroke="#001122"></path><path d="M434.4 49.7L372.4 156.3L471.6 148.3Z" fill="#4d1788" stroke="#001122"></path><path d="M450.6 509.7L475.6 518.3L518.6 442Z" fill="#5f1da7" stroke="#001122"></path><path d="M475.6 518.3L537.8 494.7L518.6 442Z" fill="#591b9c" stroke="#001122"></path><path d="M249.9 374.3L236.7 443L314.9 433.7Z" fill="#411374" stroke="#001122"></path><path d="M314.9 433.7L318.2 550.3L321.2 433.7Z" fill="#651fb1" stroke="#001122"></path><path d="M450.6 509.7L463.4 567.3L475.6 518.3Z" fill="#651fb1" stroke="#001122"></path><path d="M162.7 426.7L236.7 443L249.9 374.3Z" fill="#7223c7" stroke="#001122"></path><path d="M244.7 244.7L186.5 309.7L236.7 322.3Z" fill="#360f60" stroke="#001122"></path><path d="M236.7 322.3L186.5 309.7L249.9 374.3Z" fill="#5f1da7" stroke="#001122"></path><path d="M134.5 220L186.5 309.7L244.7 244.7Z" fill="#651fb1" stroke="#001122"></path><path d="M275.9 89.3L223.7 154.3L304.9 174Z" fill="#3c116a" stroke="#001122"></path><path d="M663.3 378.3L662.1 363L597.8 388Z" fill="#6c21bc" stroke="#001122"></path><path d="M597.8 388L662.1 363L588.8 361.3Z" fill="#5f1da7" stroke="#001122"></path><path d="M505.8 41.7L471.6 148.3L528.8 154.3Z" fill="#4d1788" stroke="#001122"></path><path d="M505.8 41.7L434.4 49.7L471.6 148.3Z" fill="#5f1da7" stroke="#001122"></path><path d="M475.6 518.3L539.8 523.3L537.8 494.7Z" fill="#47157e" stroke="#001122"></path><path d="M667.3 497.7L663.3 378.3L597.8 388Z" fill="#651fb1" stroke="#001122"></path><path d="M661.3 189L614.1 137.3L616.1 220.7Z" fill="#651fb1" stroke="#001122"></path><path d="M616.1 220.7L614.1 137.3L587.8 218Z" fill="#3c116a" stroke="#001122"></path><path d="M663.3 378.3L668.1 357.3L662.1 363Z" fill="#4d1788" stroke="#001122"></path><path d="M662.1 363L668.1 357.3L590.8 278.7Z" fill="#6c21bc" stroke="#001122"></path><path d="M590.1 509.7L518.6 442L537.8 494.7Z" fill="#591b9c" stroke="#001122"></path><path d="M347.2 91.3L275.9 89.3L304.9 174Z" fill="#531992" stroke="#001122"></path><path d="M280.9 55.7L275.9 89.3L347.2 91.3Z" fill="#651fb1" stroke="#001122"></path><path d="M434.4 49.7L366.2 45.7L347.2 91.3Z" fill="#360f60" stroke="#001122"></path><path d="M668.1 357.3L682.3 271.7L590.8 278.7Z" fill="#411374" stroke="#001122"></path><path d="M682.3 271.7L661.3 189L616.1 220.7Z" fill="#47157e" stroke="#001122"></path><path d="M539.8 523.3L590.1 509.7L537.8 494.7Z" fill="#6c21bc" stroke="#001122"></path><path d="M282.9 550.3L318.2 550.3L314.9 433.7Z" fill="#6c21bc" stroke="#001122"></path><path d="M475.6 518.3L463.4 567.3L539.8 523.3Z" fill="#591b9c" stroke="#001122"></path><path d="M350.2 600L463.4 567.3L450.6 509.7Z" fill="#5f1da7" stroke="#001122"></path><path d="M539.8 523.3L579.1 540.3L590.1 509.7Z" fill="#5f1da7" stroke="#001122"></path><path d="M514.6 41.7L505.8 41.7L528.8 154.3Z" fill="#3c116a" stroke="#001122"></path><path d="M434.4 49.7L407.4 0L366.2 45.7Z" fill="#47157e" stroke="#001122"></path><path d="M175.7 158L174.5 180.3L223.7 154.3Z" fill="#531992" stroke="#001122"></path><path d="M223.7 154.3L174.5 180.3L244.7 244.7Z" fill="#4d1788" stroke="#001122"></path><path d="M614.1 137.3L514.6 41.7L528.8 154.3Z" fill="#4d1788" stroke="#001122"></path><path d="M366.2 45.7L280.9 55.7L347.2 91.3Z" fill="#4d1788" stroke="#001122"></path><path d="M212.7 69.7L175.7 158L223.7 154.3Z" fill="#7223c7" stroke="#001122"></path><path d="M212.7 69.7L223.7 154.3L275.9 89.3Z" fill="#4d1788" stroke="#001122"></path><path d="M236.7 443L282.9 550.3L314.9 433.7Z" fill="#7223c7" stroke="#001122"></path><path d="M350.2 600L462.4 600L463.4 567.3Z" fill="#7223c7" stroke="#001122"></path><path d="M109.5 361L162.7 426.7L186.5 309.7Z" fill="#411374" stroke="#001122"></path><path d="M186.5 309.7L162.7 426.7L249.9 374.3Z" fill="#3c116a" stroke="#001122"></path><path d="M236.7 443L225.7 576.3L282.9 550.3Z" fill="#4d1788" stroke="#001122"></path><path d="M515.6 600L579.1 540.3L539.8 523.3Z" fill="#7223c7" stroke="#001122"></path><path d="M590.1 509.7L667.3 497.7L597.8 388Z" fill="#360f60" stroke="#001122"></path><path d="M175.7 158L134.5 220L174.5 180.3Z" fill="#531992" stroke="#001122"></path><path d="M174.5 180.3L134.5 220L244.7 244.7Z" fill="#4d1788" stroke="#001122"></path><path d="M514.8 0L407.4 0L434.4 49.7Z" fill="#4d1788" stroke="#001122"></path><path d="M366.2 45.7L297.2 0L280.9 55.7Z" fill="#531992" stroke="#001122"></path><path d="M514.8 0L434.4 49.7L505.8 41.7Z" fill="#531992" stroke="#001122"></path><path d="M350.2 600L435.4 492.7L318.2 550.3Z" fill="#47157e" stroke="#001122"></path><path d="M463.4 567.3L515.6 600L539.8 523.3Z" fill="#531992" stroke="#001122"></path><path d="M162.7 426.7L166.5 468.7L236.7 443Z" fill="#47157e" stroke="#001122"></path><path d="M84.2 411L166.5 468.7L162.7 426.7Z" fill="#411374" stroke="#001122"></path><path d="M239.9 600L350.2 600L282.9 550.3Z" fill="#651fb1" stroke="#001122"></path><path d="M282.9 550.3L350.2 600L318.2 550.3Z" fill="#651fb1" stroke="#001122"></path><path d="M280.9 55.7L212.7 69.7L275.9 89.3Z" fill="#651fb1" stroke="#001122"></path><path d="M78.2 109.3L74.2 219.7L134.5 220Z" fill="#6c21bc" stroke="#001122"></path><path d="M191.7 0L212.7 69.7L280.9 55.7Z" fill="#360f60" stroke="#001122"></path><path d="M74.2 219.7L113.2 248L134.5 220Z" fill="#531992" stroke="#001122"></path><path d="M134.5 220L113.2 248L186.5 309.7Z" fill="#411374" stroke="#001122"></path><path d="M113.2 248L108.5 296.3L186.5 309.7Z" fill="#531992" stroke="#001122"></path><path d="M462.4 600L515.6 600L463.4 567.3Z" fill="#4d1788" stroke="#001122"></path><path d="M659.3 600L667.3 497.7L579.1 540.3Z" fill="#531992" stroke="#001122"></path><path d="M579.1 540.3L667.3 497.7L590.1 509.7Z" fill="#531992" stroke="#001122"></path><path d="M663.3 378.3L716.3 417L668.1 357.3Z" fill="#411374" stroke="#001122"></path><path d="M668.1 357.3L784.5 301.7L682.3 271.7Z" fill="#6c21bc" stroke="#001122"></path><path d="M533.6 0L514.8 0L514.6 41.7Z" fill="#531992" stroke="#001122"></path><path d="M514.6 41.7L514.8 0L505.8 41.7Z" fill="#360f60" stroke="#001122"></path><path d="M533.6 0L514.6 41.7L590.1 0Z" fill="#6c21bc" stroke="#001122"></path><path d="M108.5 296.3L109.5 361L186.5 309.7Z" fill="#6c21bc" stroke="#001122"></path><path d="M667.3 497.7L716.3 417L663.3 378.3Z" fill="#360f60" stroke="#001122"></path><path d="M610.1 31.7L514.6 41.7L614.1 137.3Z" fill="#4d1788" stroke="#001122"></path><path d="M407.4 0L297.2 0L366.2 45.7Z" fill="#360f60" stroke="#001122"></path><path d="M297.2 0L292.9 0L280.9 55.7Z" fill="#531992" stroke="#001122"></path><path d="M728.3 122.3L614.1 137.3L661.3 189Z" fill="#3c116a" stroke="#001122"></path><path d="M728.3 122.3L645.3 61.7L614.1 137.3Z" fill="#651fb1" stroke="#001122"></path><path d="M728.3 122.3L661.3 189L781.5 156Z" fill="#531992" stroke="#001122"></path><path d="M645.3 61.7L610.1 31.7L614.1 137.3Z" fill="#5f1da7" stroke="#001122"></path><path d="M166.5 468.7L225.7 576.3L236.7 443Z" fill="#7223c7" stroke="#001122"></path><path d="M515.6 600L577.8 600L579.1 540.3Z" fill="#411374" stroke="#001122"></path><path d="M667.3 497.7L730.5 447L716.3 417Z" fill="#47157e" stroke="#001122"></path><path d="M781.5 156L661.3 189L682.3 271.7Z" fill="#360f60" stroke="#001122"></path><path d="M723.3 490.3L730.5 447L667.3 497.7Z" fill="#651fb1" stroke="#001122"></path><path d="M645.3 0L590.1 0L610.1 31.7Z" fill="#591b9c" stroke="#001122"></path><path d="M610.1 31.7L590.1 0L514.6 41.7Z" fill="#651fb1" stroke="#001122"></path><path d="M225.7 576.3L239.9 600L282.9 550.3Z" fill="#411374" stroke="#001122"></path><path d="M0 359L84.2 411L109.5 361Z" fill="#6c21bc" stroke="#001122"></path><path d="M109.5 361L84.2 411L162.7 426.7Z" fill="#591b9c" stroke="#001122"></path><path d="M166.5 468.7L122.5 508.3L225.7 576.3Z" fill="#6c21bc" stroke="#001122"></path><path d="M225.7 576.3L205.7 600L239.9 600Z" fill="#651fb1" stroke="#001122"></path><path d="M56.2 288.3L109.5 361L108.5 296.3Z" fill="#5f1da7" stroke="#001122"></path><path d="M577.8 600L610.1 600L579.1 540.3Z" fill="#6c21bc" stroke="#001122"></path><path d="M78.2 109.3L134.5 220L175.7 158Z" fill="#3c116a" stroke="#001122"></path><path d="M113.2 248L56.2 288.3L108.5 296.3Z" fill="#360f60" stroke="#001122"></path><path d="M784.5 301.7L668.1 357.3L716.3 417Z" fill="#360f60" stroke="#001122"></path><path d="M645.3 61.7L645.3 0L610.1 31.7Z" fill="#651fb1" stroke="#001122"></path><path d="M733.5 515.7L723.3 490.3L667.3 497.7Z" fill="#651fb1" stroke="#001122"></path><path d="M84.2 411L122.5 508.3L166.5 468.7Z" fill="#47157e" stroke="#001122"></path><path d="M801.8 384L716.3 417L789.8 447.7Z" fill="#360f60" stroke="#001122"></path><path d="M801.8 384L784.5 301.7L716.3 417Z" fill="#5f1da7" stroke="#001122"></path><path d="M74.2 219.7L56.2 288.3L113.2 248Z" fill="#591b9c" stroke="#001122"></path><path d="M122.5 508.3L205.7 600L225.7 576.3Z" fill="#360f60" stroke="#001122"></path><path d="M734.5 27.7L645.3 0L645.3 61.7Z" fill="#47157e" stroke="#001122"></path><path d="M292.9 0L191.7 0L280.9 55.7Z" fill="#591b9c" stroke="#001122"></path><path d="M212.7 69.7L109.5 80.7L175.7 158Z" fill="#360f60" stroke="#001122"></path><path d="M659.3 600L733.5 515.7L667.3 497.7Z" fill="#651fb1" stroke="#001122"></path><path d="M723.3 490.3L789.8 447.7L730.5 447Z" fill="#531992" stroke="#001122"></path><path d="M142.5 0L109.5 80.7L212.7 69.7Z" fill="#651fb1" stroke="#001122"></path><path d="M0 187L0 303.7L56.2 288.3Z" fill="#6c21bc" stroke="#001122"></path><path d="M610.1 600L659.3 600L579.1 540.3Z" fill="#7223c7" stroke="#001122"></path><path d="M784.5 301.7L781.5 156L682.3 271.7Z" fill="#651fb1" stroke="#001122"></path><path d="M728.3 122.3L734.5 27.7L645.3 61.7Z" fill="#4d1788" stroke="#001122"></path><path d="M789.8 447.7L716.3 417L730.5 447Z" fill="#591b9c" stroke="#001122"></path><path d="M784.5 301.7L829.8 187L781.5 156Z" fill="#360f60" stroke="#001122"></path><path d="M801.8 384L810.5 324.3L784.5 301.7Z" fill="#3c116a" stroke="#001122"></path><path d="M34.2 91.7L78.2 109.3L109.5 80.7Z" fill="#6c21bc" stroke="#001122"></path><path d="M109.5 80.7L78.2 109.3L175.7 158Z" fill="#591b9c" stroke="#001122"></path><path d="M733.5 515.7L789.8 447.7L723.3 490.3Z" fill="#6c21bc" stroke="#001122"></path><path d="M781.5 156L759.5 84.3L728.3 122.3Z" fill="#5f1da7" stroke="#001122"></path><path d="M191.7 0L142.5 0L212.7 69.7Z" fill="#7223c7" stroke="#001122"></path><path d="M759.5 84.3L734.5 27.7L728.3 122.3Z" fill="#4d1788" stroke="#001122"></path><path d="M56.2 288.3L0 340.3L109.5 361Z" fill="#6c21bc" stroke="#001122"></path><path d="M32.2 504.7L62.2 540.3L122.5 508.3Z" fill="#4d1788" stroke="#001122"></path><path d="M0 187L56.2 288.3L74.2 219.7Z" fill="#591b9c" stroke="#001122"></path><path d="M0 303.7L0 340.3L56.2 288.3Z" fill="#6c21bc" stroke="#001122"></path><path d="M0 340.3L0 359L109.5 361Z" fill="#4d1788" stroke="#001122"></path><path d="M848.8 257.7L829.8 187L784.5 301.7Z" fill="#651fb1" stroke="#001122"></path><path d="M781.5 156L811.8 97.3L759.5 84.3Z" fill="#6c21bc" stroke="#001122"></path><path d="M759.5 84.3L762.5 0L734.5 27.7Z" fill="#5f1da7" stroke="#001122"></path><path d="M810.5 324.3L848.8 257.7L784.5 301.7Z" fill="#411374" stroke="#001122"></path><path d="M857.8 305.3L848.8 257.7L810.5 324.3Z" fill="#651fb1" stroke="#001122"></path><path d="M857.8 305.3L810.5 324.3L900 337.3Z" fill="#3c116a" stroke="#001122"></path><path d="M32.2 504.7L122.5 508.3L84.2 411Z" fill="#5f1da7" stroke="#001122"></path><path d="M122.5 508.3L92.5 600L205.7 600Z" fill="#411374" stroke="#001122"></path><path d="M0 114.7L0 187L78.2 109.3Z" fill="#7223c7" stroke="#001122"></path><path d="M78.2 109.3L0 187L74.2 219.7Z" fill="#5f1da7" stroke="#001122"></path><path d="M0 359L0 418.7L84.2 411Z" fill="#360f60" stroke="#001122"></path><path d="M900 337.3L810.5 324.3L801.8 384Z" fill="#4d1788" stroke="#001122"></path><path d="M0 418.7L32.2 504.7L84.2 411Z" fill="#360f60" stroke="#001122"></path><path d="M762.5 600L784.5 546.3L733.5 515.7Z" fill="#360f60" stroke="#001122"></path><path d="M733.5 515.7L784.5 546.3L789.8 447.7Z" fill="#4d1788" stroke="#001122"></path><path d="M900 337.3L900 278.7L857.8 305.3Z" fill="#591b9c" stroke="#001122"></path><path d="M93.2 0L34.2 91.7L109.5 80.7Z" fill="#6c21bc" stroke="#001122"></path><path d="M858.8 80.7L811.8 97.3L900 151Z" fill="#360f60" stroke="#001122"></path><path d="M829.8 187L811.8 97.3L781.5 156Z" fill="#5f1da7" stroke="#001122"></path><path d="M78.2 600L92.5 600L62.2 540.3Z" fill="#6c21bc" stroke="#001122"></path><path d="M62.2 540.3L92.5 600L122.5 508.3Z" fill="#3c116a" stroke="#001122"></path><path d="M142.5 0L93.2 0L109.5 80.7Z" fill="#6c21bc" stroke="#001122"></path><path d="M659.3 600L762.5 600L733.5 515.7Z" fill="#47157e" stroke="#001122"></path><path d="M0 575.3L78.2 600L62.2 540.3Z" fill="#3c116a" stroke="#001122"></path><path d="M811.8 97.3L762.5 0L759.5 84.3Z" fill="#651fb1" stroke="#001122"></path><path d="M734.5 27.7L762.5 0L645.3 0Z" fill="#411374" stroke="#001122"></path><path d="M34.2 91.7L0 114.7L78.2 109.3Z" fill="#47157e" stroke="#001122"></path><path d="M0 86.3L0 114.7L34.2 91.7Z" fill="#7223c7" stroke="#001122"></path><path d="M762.5 600L783.8 600L784.5 546.3Z" fill="#6c21bc" stroke="#001122"></path><path d="M900 337.3L801.8 384L900 402Z" fill="#360f60" stroke="#001122"></path><path d="M0 0L0 86.3L34.2 91.7Z" fill="#5f1da7" stroke="#001122"></path><path d="M857.8 305.3L900 278.7L848.8 257.7Z" fill="#651fb1" stroke="#001122"></path><path d="M848.8 257.7L900 181.3L829.8 187Z" fill="#411374" stroke="#001122"></path><path d="M801.8 384L789.8 447.7L900 402Z" fill="#4d1788" stroke="#001122"></path><path d="M900 402L789.8 447.7L900 483.7Z" fill="#531992" stroke="#001122"></path><path d="M860.8 535.3L789.8 447.7L784.5 546.3Z" fill="#531992" stroke="#001122"></path><path d="M900 151L811.8 97.3L829.8 187Z" fill="#47157e" stroke="#001122"></path><path d="M811.8 97.3L858.8 80.7L762.5 0Z" fill="#531992" stroke="#001122"></path><path d="M900 278.7L900 181.3L848.8 257.7Z" fill="#411374" stroke="#001122"></path><path d="M783.8 600L860.8 535.3L784.5 546.3Z" fill="#47157e" stroke="#001122"></path><path d="M0 418.7L0 575.3L32.2 504.7Z" fill="#3c116a" stroke="#001122"></path><path d="M32.2 504.7L0 575.3L62.2 540.3Z" fill="#360f60" stroke="#001122"></path><path d="M900 181.3L900 151L829.8 187Z" fill="#6c21bc" stroke="#001122"></path><path d="M860.8 535.3L900 483.7L789.8 447.7Z" fill="#411374" stroke="#001122"></path><path d="M0 575.3L0 600L78.2 600Z" fill="#651fb1" stroke="#001122"></path><path d="M93.2 0L0 0L34.2 91.7Z" fill="#360f60" stroke="#001122"></path><path d="M900 151L900 85.7L858.8 80.7Z" fill="#7223c7" stroke="#001122"></path><path d="M858.8 80.7L876.8 0L762.5 0Z" fill="#651fb1" stroke="#001122"></path><path d="M900 600L900 546.3L860.8 535.3Z" fill="#6c21bc" stroke="#001122"></path><path d="M860.8 535.3L900 546.3L900 483.7Z" fill="#6c21bc" stroke="#001122"></path><path d="M900 85.7L876.8 0L858.8 80.7Z" fill="#531992" stroke="#001122"></path><path d="M783.8 600L900 600L860.8 535.3Z" fill="#3c116a" stroke="#001122"></path><path d="M900 85.7L900 0L876.8 0Z" fill="#3c116a" stroke="#001122"></path></g></svg>