<svg xmlns="http://www.w3.org/2000/svg" version="1.1" xmlns:xlink="http://www.w3.org/1999/xlink" xmlns:svgjs="http://svgjs.com/svgjs" width="1300" height="1500" preserveAspectRatio="none" viewBox="0 0 1300 1500"><g mask="url(&quot;#SvgjsMask1086&quot;)" fill="none"><rect width="1300" height="1500" x="0" y="0" fill="url(#SvgjsLinearGradient1087)"></rect><path d="M1300 0L867.19 0L1300 630.52z" fill="rgba(255, 255, 255, .1)"></path><path d="M867.19 0L1300 630.52L1300 810.95L412.03000000000003 0z" fill="rgba(255, 255, 255, .075)"></path><path d="M412.03 0L1300 810.95L1300 950.49L341.59 0z" fill="rgba(255, 255, 255, .05)"></path><path d="M341.5899999999999 0L1300 950.49L1300 1268.99L153.32999999999993 0z" fill="rgba(255, 255, 255, .025)"></path><path d="M0 1500L453.82 1500L0 791.47z" fill="rgba(0, 0, 0, .1)"></path><path d="M0 791.47L453.82 1500L482.77 1500L0 356.31z" fill="rgba(0, 0, 0, .075)"></path><path d="M0 356.30999999999995L482.77 1500L501.84999999999997 1500L0 319.04999999999995z" fill="rgba(0, 0, 0, .05)"></path><path d="M0 319.04999999999995L501.84999999999997 1500L1035.42 1500L0 243.73999999999995z" fill="rgba(0, 0, 0, .025)"></path></g><defs><mask id="SvgjsMask1086"><rect width="1300" height="1500" fill="#ffffff"></rect></mask><linearGradient x1="50%" y1="0%" x2="50%" y2="100%" gradientUnits="userSpaceOnUse" id="SvgjsLinearGradient1087"><stop stop-color="#0e2a47" offset="0"></stop><stop stop-color="rgba(114, 35, 199, 1)" offset="1"></stop></linearGradient></defs></svg>