<svg id="visual" viewBox="0 0 900 600" width="900" height="600" xmlns="http://www.w3.org/2000/svg" xmlns:xlink="http://www.w3.org/1999/xlink" version="1.1"><rect x="0" y="0" width="900" height="600" fill="#7223C7"></rect><path d="M713 600L722.2 585.7C731.3 571.3 749.7 542.7 732.5 514.2C715.3 485.7 662.7 457.3 637.5 428.8C612.3 400.3 614.7 371.7 611.7 343C608.7 314.3 600.3 285.7 597 257C593.7 228.3 595.3 199.7 596.8 171.2C598.3 142.7 599.7 114.3 606 85.8C612.3 57.3 623.7 28.7 629.3 14.3L635 0L900 0L900 14.3C900 28.7 900 57.3 900 85.8C900 114.3 900 142.7 900 171.2C900 199.7 900 228.3 900 257C900 285.7 900 314.3 900 343C900 371.7 900 400.3 900 428.8C900 457.3 900 485.7 900 514.2C900 542.7 900 571.3 900 585.7L900 600Z" fill="#421472" stroke-linecap="round" stroke-linejoin="miter"></path></svg>